<?xml version="1.0" encoding="UTF-8" standalone="no"?>
<svg
   viewBox="0 0 83 67.05"
   version="1.1"
   id="svg16"
   sodipodi:docname="socials-wechat.svg"
   width="83"
   height="67.050003"
   inkscape:version="1.3.2 (091e20e, 2023-11-25, custom)"
   xmlns:inkscape="http://www.inkscape.org/namespaces/inkscape"
   xmlns:sodipodi="http://sodipodi.sourceforge.net/DTD/sodipodi-0.dtd"
   xmlns="http://www.w3.org/2000/svg"
   xmlns:svg="http://www.w3.org/2000/svg"
   xmlns:rdf="http://www.w3.org/1999/02/22-rdf-syntax-ns#"
   xmlns:cc="http://creativecommons.org/ns#"
   xmlns:dc="http://purl.org/dc/elements/1.1/">
  <sodipodi:namedview
     id="namedview16"
     pagecolor="#ffffff"
     bordercolor="#000000"
     borderopacity="0.25"
     inkscape:showpageshadow="2"
     inkscape:pageopacity="0.0"
     inkscape:pagecheckerboard="0"
     inkscape:deskcolor="#d1d1d1"
     inkscape:zoom="4.606383"
     inkscape:cx="99.101617"
     inkscape:cy="33.540416"
     inkscape:window-width="1920"
     inkscape:window-height="1009"
     inkscape:window-x="-8"
     inkscape:window-y="-8"
     inkscape:window-maximized="1"
     inkscape:current-layer="svg16" />
  <defs
     id="defs7">
    <style
       id="style1">.cls-1{fill:none;}.cls-2{fill:#4e4e4e;}.cls-3{clip-path:url(#clip-path);}.cls-4{fill:url(#未命名的渐变_3);}.cls-5{clip-path:url(#clip-path-2);}.cls-6{fill:url(#未命名的渐变_30);}.cls-7{fill:#227b3d;}.cls-8{fill:#8c8c8c;}</style>
    <clipPath
       id="clip-path"
       transform="translate(0 0)">
      <path
         class="cls-1"
         d="m 0,25.08 c 0,7.56 4.06,14.37 10.4,19 a 2,2 0 0 1 0.85,1.64 2.32,2.32 0 0 1 -0.11,0.64 c -0.5,1.89 -1.32,4.92 -1.35,5.06 a 2.67,2.67 0 0 0 -0.17,0.73 1,1 0 0 0 1,1 1.2,1.2 0 0 0 0.58,-0.18 l 6.59,-3.81 a 3.23,3.23 0 0 1 1.6,-0.46 3.3,3.3 0 0 1 0.89,0.13 35.37,35.37 0 0 0 9.83,1.38 C 46.74,50.21 60.22,38.98 60.22,25.12 60.22,11.26 46.75,0 30.12,0 13.49,0 0,11.23 0,25.08"
         id="path1" />
    </clipPath>
    <linearGradient
       id="未命名的渐变_3"
       x1="-159.05"
       y1="793.45001"
       x2="-158.12"
       y2="793.45001"
       gradientTransform="matrix(0,-50.19,50.19,0,-39793.37,-7921.57)"
       gradientUnits="userSpaceOnUse">
      <stop
         offset="0"
         stop-color="#7bc142"
         id="stop1" />
      <stop
         offset="0.03"
         stop-color="#7bc142"
         id="stop2" />
      <stop
         offset="0.96"
         stop-color="#a7d168"
         id="stop3" />
      <stop
         offset="1"
         stop-color="#a7d168"
         id="stop4" />
    </linearGradient>
    <clipPath
       id="clip-path-2"
       transform="translate(0 0)">
      <path
         class="cls-1"
         d="m 33,43.71 c 0,11.53 11.23,20.88 25.08,20.88 a 29.57,29.57 0 0 0 8.19,-1.14 2.55,2.55 0 0 1 0.74,-0.11 2.7,2.7 0 0 1 1.33,0.38 l 5.49,3.17 a 0.92,0.92 0 0 0 0.48,0.16 0.85,0.85 0 0 0 0.84,-0.84 A 2.69,2.69 0 0 0 75,65.6 l -1.13,-4.21 a 2,2 0 0 1 -0.09,-0.53 1.68,1.68 0 0 1 0.71,-1.37 C 79.77,55.67 83.15,50 83.15,43.71 83.15,32.17 71.92,22.82 58.07,22.82 44.22,22.82 33,32.17 33,43.71"
         id="path4" />
    </clipPath>
    <linearGradient
       id="未命名的渐变_30"
       x1="-159.24001"
       y1="793.37"
       x2="-158.31"
       y2="793.37"
       gradientTransform="matrix(0,-47.44,47.44,0,-37578.96,-7487.13)"
       gradientUnits="userSpaceOnUse">
      <stop
         offset="0"
         stop-color="#d3d3d3"
         id="stop5" />
      <stop
         offset="0"
         stop-color="#e4e7e8"
         id="stop6" />
      <stop
         offset="1"
         stop-color="#f1f0f0"
         id="stop7" />
    </linearGradient>
  </defs>
  <title
     id="title7">Untitled-2</title>
  <g
     class="cls-3"
     clip-path="url(#clip-path)"
     id="g12">
    <rect
       class="cls-4"
       width="60.23"
       height="53.110001"
       id="rect12"
       x="0"
       y="0"
       style="fill:url(#%E6%9C%AA%E5%91%BD%E5%90%8D%E7%9A%84%E6%B8%90%E5%8F%98_3)" />
  </g>
  <g
     class="cls-5"
     clip-path="url(#clip-path-2)"
     id="g13">
    <rect
       class="cls-6"
       x="32.990002"
       y="22.82"
       width="50.16"
       height="44.23"
       id="rect13"
       style="fill:url(#%E6%9C%AA%E5%91%BD%E5%90%8D%E7%9A%84%E6%B8%90%E5%8F%98_30)" />
  </g>
  <path
     class="cls-7"
     d="m 24.07,17 a 4,4 0 1 1 -4,-4 4,4 0 0 1 4,4"
     id="path13" />
  <path
     class="cls-7"
     d="m 44.21,17 a 4,4 0 1 1 -4,-4 4,4 0 0 1 4,4"
     id="path14" />
  <path
     class="cls-8"
     d="M 63.35,37.33 A 3.36,3.36 0 1 0 66.7,34 3.35,3.35 0 0 0 63.35,37.36"
     id="path15" />
  <path
     class="cls-8"
     d="M 46.56,37.33 A 3.36,3.36 0 1 0 49.92,34 3.36,3.36 0 0 0 46.56,37.36"
     id="path16" />
  <metadata
     id="metadata16">
    <rdf:RDF>
      <cc:Work
         rdf:about="">
        <dc:title>Untitled-2</dc:title>
      </cc:Work>
    </rdf:RDF>
  </metadata>
</svg>
