<?xml version="1.0" standalone="no"?>
<!DOCTYPE svg PUBLIC "-//W3C//DTD SVG 20010904//EN"
 "http://www.w3.org/TR/2001/REC-SVG-20010904/DTD/svg10.dtd">
<svg version="1.0" xmlns="http://www.w3.org/2000/svg"
 width="260.000000pt" height="260.000000pt" viewBox="0 0 260.000000 260.000000"
 preserveAspectRatio="xMidYMid meet">
<metadata>
Created by potrace 1.14, written by Peter Selinger 2001-2017
</metadata>
<g transform="translate(0.000000,260.000000) scale(0.100000,-0.100000)"
fill="#000000" stroke="none">
<path d="M1150 2594 c-361 -66 -576 -175 -791 -402 -168 -177 -269 -363 -327
-607 -23 -97 -26 -131 -26 -285 0 -154 3 -188 26 -285 58 -244 159 -430 327
-607 186 -196 406 -321 671 -380 151 -33 389 -33 540 0 265 59 485 184 671
380 168 177 269 364 327 607 23 96 26 132 27 280 0 198 -20 310 -86 481 -92
236 -274 462 -489 605 -219 145 -422 208 -690 214 -85 2 -166 1 -180 -1z m139
-536 c-37 -93 -37 -90 11 -86 l43 3 26 68 26 67 73 0 c82 0 80 4 46 -79 -26
-63 -33 -61 179 -61 265 0 363 -26 458 -121 132 -132 131 -342 -3 -520 -71
-94 -105 -125 -233 -208 -199 -129 -379 -199 -725 -281 -52 -13 -102 -26 -111
-31 -10 -5 -54 -114 -110 -274 -52 -146 -98 -264 -103 -262 -4 1 -48 115 -97
252 l-89 248 64 186 c86 249 212 608 226 649 l12 32 189 0 c121 0 189 -4 189
-10 0 -6 -47 -142 -105 -303 -98 -273 -112 -317 -101 -317 23 0 189 61 261 95
184 89 285 169 338 270 29 54 32 68 32 152 0 88 -1 93 -29 122 -65 68 -44 65
-645 71 l-545 5 -37 105 c-20 58 -40 113 -44 123 -7 16 12 17 308 17 l316 0
22 70 23 70 78 0 78 0 -21 -52z"/>
</g>
</svg>
